# xmcd
#
# Track frame offsets: 
#        183
#        24680
#        41555
#        66463
#        89248
#        107865
#        122768
#        140585
#        156398
#        183240
#        212073
#
# Disc length: 3175 seconds
#
# Revision: 0
# Processed by: cddbd v1.5.2PL0 Copyright (c) Steve Scherf et al.
# Submitted via: ExactAudioCopy v0.99pb4
#
DISCID=aa0c650b
DTITLE=Various Artist - Rare 4 - Rare Sould Classics from the 70s and 80s
DYEAR=1900
DGENRE=Rare Groove
TTITLE0=James Mason - Sweet Power, Your Embrace
TTITLE1=Mighty Ryeders - Evil Vibrations
TTITLE2=Chocolate Milk - Grand Theft
TTITLE3=Michigan Avenue - All That Matters
TTITLE4=Serenade - La La for Love
TTITLE5=Garland Green - Let Me Be Your Pacifier
TTITLE6=Edna Wright - Oops, Here I Go Again
TTITLE7=Lonnie Liston Smith - Renaissance
TTITLE8=The Brothers - Under the Skin
TTITLE9=Serenade - Stick By Me
TTITLE10=Kruz - Dance the Night Away
EXTD=
EXTT0=
EXTT1=
EXTT2=
EXTT3=
EXTT4=
EXTT5=
EXTT6=
EXTT7=
EXTT8=
EXTT9=
EXTT10=
PLAYORDER=
